<svg width="64" height="64" viewBox="0 0 64 64" fill="none" xmlns="http://www.w3.org/2000/svg">
<g clip-path="url(#clip0_1_541)">
<path d="M1.1387 40.4784C0.384155 37.7306 0 34.8764 0 32.0018C0 18.879 8.24168 6.88003 20.5099 2.14832L22.1184 6.31128C11.5582 10.3852 4.46553 20.7086 4.46553 32.0018C4.46553 34.479 4.79477 36.9322 5.443 39.2963L1.1387 40.4784Z" fill="#58D09E"/>
<path d="M20.2955 2.2505C22.9495 1.21286 25.7478 0.532471 28.6067 0.231986C41.6576 -1.13972 54.4523 5.80258 60.4405 17.509L56.4685 19.5438C51.3131 9.46734 40.3048 3.4926 29.0735 4.67306C26.6099 4.93199 24.2045 5.51586 21.9211 6.40766L20.2955 2.2505Z" fill="#58D09E"/>
<path d="M46.6473 55.2685C55.3618 49.7137 60.2156 39.8557 59.3137 29.5475C58.9942 25.895 57.9805 22.4066 56.3057 19.1861L60.2628 17.1219C62.2103 20.866 63.3899 24.9148 63.7612 29.1584C64.8089 41.1339 59.1725 52.5821 49.0474 59.0351L46.6473 55.2685Z" fill="black"/>
<path d="M22.5026 25.3992C25.092 25.3992 27.2013 26.78 28.2852 29.1887L28.3709 29.3772L32.7197 27.9004L32.6272 27.6778C30.9432 23.5764 27.0641 21.0272 22.5026 21.0272C19.2957 21.0272 16.6892 22.0552 14.5353 24.1658C12.3951 26.2627 11.3113 28.901 11.3113 32.0086C11.3113 35.0888 12.3951 37.7134 14.5353 39.8103C16.6892 41.921 19.2957 42.9488 22.5026 42.9488C27.0641 42.9488 30.9432 40.3996 32.6272 36.3018L32.7197 36.0791L28.364 34.5988L28.2817 34.7942C27.311 37.1618 25.1504 38.5768 22.5026 38.5768C20.6985 38.5768 19.1757 37.9464 17.9684 36.706C16.7474 35.4486 16.1301 33.8691 16.1301 32.012C16.1301 30.1412 16.7337 28.5926 17.9684 27.2768C19.1722 26.0298 20.6985 25.3992 22.5026 25.3992Z" fill="black"/>
<path d="M49.7414 21.4316L43.544 37.1138L37.3053 21.4316H32.2018L40.951 42.8358L34.7261 57.932L39.1882 58.8195L54.5637 21.4316H49.7414Z" fill="black"/>
<path d="M35.5245 55.9858L34.4373 58.6173C34.2212 59.1381 33.7273 59.4909 33.1717 59.5149C32.8048 59.5286 32.4344 59.5389 32.0605 59.5389C19.2641 59.5321 7.94257 50.5106 5.13704 38.08L0.78125 39.0633C2.35551 46.0358 6.30659 52.3642 11.9073 56.887C17.5733 61.461 24.7105 63.9862 32.0125 64C32.0228 64 32.0776 64 32.0776 64C32.5064 64 32.9316 63.9897 33.3569 63.9726C35.648 63.8766 37.6956 62.441 38.5701 60.3133L39.99 56.8733L35.5245 55.9858Z" fill="black"/>
</g>
<defs>
<clipPath id="clip0_1_541">
<rect width="64" height="64" fill="white"/>
</clipPath>
</defs>
</svg>
