<svg width="64" height="64" viewBox="0 0 64 64" fill="none" xmlns="http://www.w3.org/2000/svg">
<path fill-rule="evenodd" clip-rule="evenodd" d="M11.2626 55.604L9.52662 9.37595C9.47195 7.84929 10.6453 6.55729 12.1693 6.46395L42.9799 4.53729L45.3333 5.33329L48.3933 4.19862L51.4813 4.00529C53.0319 3.90662 54.3693 5.08395 54.4693 6.63462C54.4733 6.69462 54.4746 6.75595 54.4746 6.81729V57.1866C54.4733 58.7426 53.2106 60.0026 51.6546 60.0013C51.6133 60.0013 51.5719 60 51.5319 59.9986L13.9506 58.3106C12.4866 58.2453 11.3186 57.0693 11.2626 55.604Z" fill="#FF4081"/>
<path fill-rule="evenodd" clip-rule="evenodd" d="M48.3907 4.19861L42.9814 4.53461L42.7187 10.8826C42.7094 11.1146 42.8894 11.3093 43.1214 11.3199C43.2187 11.3239 43.3134 11.2946 43.3907 11.2359L45.8547 9.36528L47.9374 11.0066C48.1187 11.1506 48.384 11.1199 48.5267 10.9386C48.588 10.8599 48.62 10.7626 48.6174 10.6626L48.3933 4.19994L48.3907 4.19861ZM44.18 25.4506C43.192 26.2199 35.8107 26.7439 35.8107 25.6493C35.968 21.4693 34.0974 21.2866 33.056 21.2866C32.0707 21.2866 30.4067 21.5839 30.4067 23.8239C30.4067 26.1053 32.8373 27.3933 35.6907 28.9053C39.7427 31.0533 44.6507 33.6546 44.6507 40.1946C44.6507 46.4666 39.5547 49.9279 33.0587 49.9279C26.3534 49.9279 20.492 47.2146 21.1533 37.8093C21.4133 36.7066 29.94 36.9693 29.94 37.8093C29.8334 41.6906 30.7187 42.8319 32.9534 42.8319C34.6694 42.8319 35.448 41.8853 35.448 40.2946C35.448 37.8839 32.9174 36.4613 30.0027 34.8266C26.0574 32.6119 21.4147 30.0053 21.4147 24.0213C21.4147 18.0519 25.52 14.0706 32.8493 14.0706C40.1787 14.0706 44.18 17.9919 44.18 25.4506Z" fill="white"/>
</svg>
